<mxfile host="Electron" modified="2023-09-03T18:06:01.025Z" agent="Mozilla/5.0 (Windows NT 10.0; Win64; x64) AppleWebKit/537.36 (KHTML, like Gecko) draw.io/21.6.8 Chrome/114.0.5735.289 Electron/25.5.0 Safari/537.36" etag="j77rYYcax9uVl2mQoNHM" version="21.6.8" type="device">
  <diagram name="Página-1" id="9XRpWPoBt2To6xk0ZYWJ">
    <mxGraphModel dx="7490" dy="4500" grid="0" gridSize="10" guides="1" tooltips="1" connect="1" arrows="1" fold="1" page="0" pageScale="1" pageWidth="827" pageHeight="1169" math="0" shadow="0">
      <root>
        <mxCell id="0" />
        <mxCell id="1" parent="0" />
        <mxCell id="ocnpiQ994oDqDsUfYSXA-90" value="" style="rounded=0;whiteSpace=wrap;html=1;fillColor=#1ba1e2;fontColor=#ffffff;strokeColor=#006EAF;" vertex="1" parent="1">
          <mxGeometry x="-147" y="-236" width="2940" height="1481" as="geometry" />
        </mxCell>
        <mxCell id="ocnpiQ994oDqDsUfYSXA-89" value="" style="rounded=0;whiteSpace=wrap;html=1;" vertex="1" parent="1">
          <mxGeometry x="-117" y="-210" width="2880" height="1429" as="geometry" />
        </mxCell>
        <mxCell id="pYjDzromJ4hDVgvuOjCU-13" style="edgeStyle=orthogonalEdgeStyle;rounded=0;orthogonalLoop=1;jettySize=auto;html=1;exitX=1;exitY=0.5;exitDx=0;exitDy=0;entryX=0;entryY=0.5;entryDx=0;entryDy=0;" parent="1" source="pYjDzromJ4hDVgvuOjCU-1" target="ocnpiQ994oDqDsUfYSXA-25" edge="1">
          <mxGeometry relative="1" as="geometry">
            <mxPoint x="250" y="242" as="targetPoint" />
          </mxGeometry>
        </mxCell>
        <mxCell id="pYjDzromJ4hDVgvuOjCU-1" value="request" style="rhombus;whiteSpace=wrap;html=1;" parent="1" vertex="1">
          <mxGeometry x="109" y="197" width="100" height="90" as="geometry" />
        </mxCell>
        <mxCell id="pYjDzromJ4hDVgvuOjCU-2" value="Fluxos do Sistema de RPG" style="text;html=1;strokeColor=none;fillColor=none;align=center;verticalAlign=middle;whiteSpace=wrap;rounded=0;fontSize=69;fontFamily=Helvetica;fontColor=#FFFFFF;fontStyle=1" parent="1" vertex="1">
          <mxGeometry x="795" y="-178" width="924" height="130" as="geometry" />
        </mxCell>
        <mxCell id="pYjDzromJ4hDVgvuOjCU-8" style="edgeStyle=orthogonalEdgeStyle;rounded=0;orthogonalLoop=1;jettySize=auto;html=1;entryX=0.5;entryY=0;entryDx=0;entryDy=0;" parent="1" source="pYjDzromJ4hDVgvuOjCU-4" target="pYjDzromJ4hDVgvuOjCU-5" edge="1">
          <mxGeometry relative="1" as="geometry">
            <Array as="points">
              <mxPoint x="450" y="190" />
              <mxPoint x="35" y="190" />
            </Array>
          </mxGeometry>
        </mxCell>
        <mxCell id="pYjDzromJ4hDVgvuOjCU-4" value="[ content ]" style="rhombus;whiteSpace=wrap;html=1;" parent="1" vertex="1">
          <mxGeometry x="400" y="197" width="100" height="90" as="geometry" />
        </mxCell>
        <mxCell id="pYjDzromJ4hDVgvuOjCU-7" style="edgeStyle=orthogonalEdgeStyle;rounded=0;orthogonalLoop=1;jettySize=auto;html=1;entryX=0;entryY=0.5;entryDx=0;entryDy=0;" parent="1" source="pYjDzromJ4hDVgvuOjCU-5" target="pYjDzromJ4hDVgvuOjCU-1" edge="1">
          <mxGeometry relative="1" as="geometry" />
        </mxCell>
        <mxCell id="pYjDzromJ4hDVgvuOjCU-5" value="" style="image;html=1;image=img/lib/clip_art/computers/Network_128x128.png" parent="1" vertex="1">
          <mxGeometry y="209.5" width="70" height="65" as="geometry" />
        </mxCell>
        <mxCell id="pYjDzromJ4hDVgvuOjCU-14" value="Recuperar conteúdos" style="text;html=1;strokeColor=none;fillColor=none;align=center;verticalAlign=middle;whiteSpace=wrap;rounded=0;fontSize=16;fontFamily=Helvetica;fontColor=#FFFFFF;fontStyle=0" parent="1" vertex="1">
          <mxGeometry x="28" y="160" width="167" height="30" as="geometry" />
        </mxCell>
        <mxCell id="pYjDzromJ4hDVgvuOjCU-18" style="edgeStyle=orthogonalEdgeStyle;rounded=0;orthogonalLoop=1;jettySize=auto;html=1;entryX=0;entryY=0.5;entryDx=0;entryDy=0;" parent="1" source="pYjDzromJ4hDVgvuOjCU-15" target="pYjDzromJ4hDVgvuOjCU-16" edge="1">
          <mxGeometry relative="1" as="geometry" />
        </mxCell>
        <mxCell id="pYjDzromJ4hDVgvuOjCU-15" value="" style="image;html=1;image=img/lib/clip_art/computers/Network_128x128.png" parent="1" vertex="1">
          <mxGeometry y="522.5" width="70" height="65" as="geometry" />
        </mxCell>
        <mxCell id="pYjDzromJ4hDVgvuOjCU-19" style="edgeStyle=orthogonalEdgeStyle;rounded=0;orthogonalLoop=1;jettySize=auto;html=1;entryX=0;entryY=0.5;entryDx=0;entryDy=0;" parent="1" source="pYjDzromJ4hDVgvuOjCU-16" edge="1" target="ocnpiQ994oDqDsUfYSXA-23">
          <mxGeometry relative="1" as="geometry">
            <mxPoint x="270" y="555" as="targetPoint" />
          </mxGeometry>
        </mxCell>
        <mxCell id="pYjDzromJ4hDVgvuOjCU-16" value="request" style="rhombus;whiteSpace=wrap;html=1;" parent="1" vertex="1">
          <mxGeometry x="109" y="510" width="100" height="90" as="geometry" />
        </mxCell>
        <mxCell id="pYjDzromJ4hDVgvuOjCU-21" style="edgeStyle=orthogonalEdgeStyle;rounded=0;orthogonalLoop=1;jettySize=auto;html=1;" parent="1" source="pYjDzromJ4hDVgvuOjCU-20" edge="1">
          <mxGeometry relative="1" as="geometry">
            <mxPoint x="440" y="470" as="targetPoint" />
          </mxGeometry>
        </mxCell>
        <mxCell id="pYjDzromJ4hDVgvuOjCU-22" value="YES" style="edgeLabel;html=1;align=center;verticalAlign=middle;resizable=0;points=[];" parent="pYjDzromJ4hDVgvuOjCU-21" vertex="1" connectable="0">
          <mxGeometry x="0.0543" y="-1" relative="1" as="geometry">
            <mxPoint as="offset" />
          </mxGeometry>
        </mxCell>
        <mxCell id="pYjDzromJ4hDVgvuOjCU-25" style="edgeStyle=orthogonalEdgeStyle;rounded=0;orthogonalLoop=1;jettySize=auto;html=1;" parent="1" source="pYjDzromJ4hDVgvuOjCU-20" edge="1">
          <mxGeometry relative="1" as="geometry">
            <mxPoint x="526" y="555" as="targetPoint" />
          </mxGeometry>
        </mxCell>
        <mxCell id="pYjDzromJ4hDVgvuOjCU-26" value="NO" style="edgeLabel;html=1;align=center;verticalAlign=middle;resizable=0;points=[];" parent="pYjDzromJ4hDVgvuOjCU-25" vertex="1" connectable="0">
          <mxGeometry x="-0.3549" y="4" relative="1" as="geometry">
            <mxPoint as="offset" />
          </mxGeometry>
        </mxCell>
        <mxCell id="pYjDzromJ4hDVgvuOjCU-20" value="Active?" style="ellipse;whiteSpace=wrap;html=1;" parent="1" vertex="1">
          <mxGeometry x="400" y="515" width="80" height="80" as="geometry" />
        </mxCell>
        <mxCell id="pYjDzromJ4hDVgvuOjCU-24" style="edgeStyle=orthogonalEdgeStyle;rounded=0;orthogonalLoop=1;jettySize=auto;html=1;entryX=0.5;entryY=0;entryDx=0;entryDy=0;" parent="1" source="pYjDzromJ4hDVgvuOjCU-23" target="pYjDzromJ4hDVgvuOjCU-15" edge="1">
          <mxGeometry relative="1" as="geometry" />
        </mxCell>
        <mxCell id="pYjDzromJ4hDVgvuOjCU-23" value="Error 404&lt;br&gt;not found" style="rhombus;whiteSpace=wrap;html=1;" parent="1" vertex="1">
          <mxGeometry x="390" y="380" width="100" height="90" as="geometry" />
        </mxCell>
        <mxCell id="pYjDzromJ4hDVgvuOjCU-28" style="edgeStyle=orthogonalEdgeStyle;rounded=0;orthogonalLoop=1;jettySize=auto;html=1;entryX=0.5;entryY=1;entryDx=0;entryDy=0;" parent="1" source="pYjDzromJ4hDVgvuOjCU-27" target="pYjDzromJ4hDVgvuOjCU-15" edge="1">
          <mxGeometry relative="1" as="geometry">
            <Array as="points">
              <mxPoint x="576" y="620" />
              <mxPoint x="35" y="620" />
            </Array>
          </mxGeometry>
        </mxCell>
        <mxCell id="pYjDzromJ4hDVgvuOjCU-27" value="[ content ]" style="rhombus;whiteSpace=wrap;html=1;" parent="1" vertex="1">
          <mxGeometry x="526" y="510" width="100" height="90" as="geometry" />
        </mxCell>
        <mxCell id="pYjDzromJ4hDVgvuOjCU-29" value="Recuperar conteúdos desativados" style="text;html=1;strokeColor=none;fillColor=none;align=center;verticalAlign=middle;whiteSpace=wrap;rounded=0;fontSize=16;fontFamily=Helvetica;fontColor=#FFFFFF;fontStyle=0" parent="1" vertex="1">
          <mxGeometry x="30.5" y="390" width="251.5" height="30" as="geometry" />
        </mxCell>
        <mxCell id="pYjDzromJ4hDVgvuOjCU-31" style="edgeStyle=orthogonalEdgeStyle;rounded=0;orthogonalLoop=1;jettySize=auto;html=1;" parent="1" source="pYjDzromJ4hDVgvuOjCU-30" edge="1">
          <mxGeometry relative="1" as="geometry">
            <mxPoint x="110" y="872.5" as="targetPoint" />
          </mxGeometry>
        </mxCell>
        <mxCell id="pYjDzromJ4hDVgvuOjCU-30" value="" style="image;html=1;image=img/lib/clip_art/computers/Network_128x128.png" parent="1" vertex="1">
          <mxGeometry y="840" width="70" height="65" as="geometry" />
        </mxCell>
        <mxCell id="pYjDzromJ4hDVgvuOjCU-33" style="edgeStyle=orthogonalEdgeStyle;rounded=0;orthogonalLoop=1;jettySize=auto;html=1;" parent="1" source="pYjDzromJ4hDVgvuOjCU-32" edge="1">
          <mxGeometry relative="1" as="geometry">
            <mxPoint x="250" y="872.5" as="targetPoint" />
          </mxGeometry>
        </mxCell>
        <mxCell id="pYjDzromJ4hDVgvuOjCU-32" value="request" style="rhombus;whiteSpace=wrap;html=1;" parent="1" vertex="1">
          <mxGeometry x="109" y="827.5" width="100" height="90" as="geometry" />
        </mxCell>
        <mxCell id="pYjDzromJ4hDVgvuOjCU-35" style="edgeStyle=orthogonalEdgeStyle;rounded=0;orthogonalLoop=1;jettySize=auto;html=1;" parent="1" source="pYjDzromJ4hDVgvuOjCU-34" edge="1">
          <mxGeometry relative="1" as="geometry">
            <mxPoint x="290" y="790" as="targetPoint" />
          </mxGeometry>
        </mxCell>
        <mxCell id="pYjDzromJ4hDVgvuOjCU-36" value="NO" style="edgeLabel;html=1;align=center;verticalAlign=middle;resizable=0;points=[];" parent="pYjDzromJ4hDVgvuOjCU-35" vertex="1" connectable="0">
          <mxGeometry x="-0.0931" y="2" relative="1" as="geometry">
            <mxPoint y="1" as="offset" />
          </mxGeometry>
        </mxCell>
        <mxCell id="pYjDzromJ4hDVgvuOjCU-39" style="edgeStyle=orthogonalEdgeStyle;rounded=0;orthogonalLoop=1;jettySize=auto;html=1;" parent="1" source="pYjDzromJ4hDVgvuOjCU-34" edge="1">
          <mxGeometry relative="1" as="geometry">
            <mxPoint x="400" y="873" as="targetPoint" />
          </mxGeometry>
        </mxCell>
        <mxCell id="pYjDzromJ4hDVgvuOjCU-40" value="YES" style="edgeLabel;html=1;align=center;verticalAlign=middle;resizable=0;points=[];" parent="pYjDzromJ4hDVgvuOjCU-39" vertex="1" connectable="0">
          <mxGeometry x="-0.3087" relative="1" as="geometry">
            <mxPoint y="1" as="offset" />
          </mxGeometry>
        </mxCell>
        <mxCell id="pYjDzromJ4hDVgvuOjCU-34" value="Valid ID?" style="ellipse;whiteSpace=wrap;html=1;" parent="1" vertex="1">
          <mxGeometry x="250" y="832.5" width="80" height="80" as="geometry" />
        </mxCell>
        <mxCell id="pYjDzromJ4hDVgvuOjCU-38" style="edgeStyle=orthogonalEdgeStyle;rounded=0;orthogonalLoop=1;jettySize=auto;html=1;entryX=0.5;entryY=0;entryDx=0;entryDy=0;" parent="1" source="pYjDzromJ4hDVgvuOjCU-37" target="pYjDzromJ4hDVgvuOjCU-30" edge="1">
          <mxGeometry relative="1" as="geometry" />
        </mxCell>
        <mxCell id="pYjDzromJ4hDVgvuOjCU-37" value="Error 400&lt;br&gt;bad request" style="rhombus;whiteSpace=wrap;html=1;" parent="1" vertex="1">
          <mxGeometry x="240" y="700" width="100" height="90" as="geometry" />
        </mxCell>
        <mxCell id="pYjDzromJ4hDVgvuOjCU-42" style="edgeStyle=orthogonalEdgeStyle;rounded=0;orthogonalLoop=1;jettySize=auto;html=1;entryX=0.5;entryY=1;entryDx=0;entryDy=0;" parent="1" source="pYjDzromJ4hDVgvuOjCU-41" target="pYjDzromJ4hDVgvuOjCU-30" edge="1">
          <mxGeometry relative="1" as="geometry">
            <Array as="points">
              <mxPoint x="642" y="938" />
              <mxPoint x="35" y="938" />
            </Array>
          </mxGeometry>
        </mxCell>
        <mxCell id="pYjDzromJ4hDVgvuOjCU-41" value="content" style="rhombus;whiteSpace=wrap;html=1;" parent="1" vertex="1">
          <mxGeometry x="592" y="827.5" width="100" height="90" as="geometry" />
        </mxCell>
        <mxCell id="pYjDzromJ4hDVgvuOjCU-43" value="Recuperar um conteúdo por ID" style="text;html=1;strokeColor=none;fillColor=none;align=center;verticalAlign=middle;whiteSpace=wrap;rounded=0;fontSize=16;fontFamily=Helvetica;fontColor=#FFFFFF;fontStyle=0" parent="1" vertex="1">
          <mxGeometry x="29.5" y="712" width="224.75" height="30" as="geometry" />
        </mxCell>
        <mxCell id="pYjDzromJ4hDVgvuOjCU-46" style="edgeStyle=orthogonalEdgeStyle;rounded=0;orthogonalLoop=1;jettySize=auto;html=1;" parent="1" source="pYjDzromJ4hDVgvuOjCU-45" edge="1">
          <mxGeometry relative="1" as="geometry">
            <mxPoint x="1708" y="332" as="targetPoint" />
          </mxGeometry>
        </mxCell>
        <mxCell id="pYjDzromJ4hDVgvuOjCU-45" value="" style="image;html=1;image=img/lib/clip_art/computers/Network_128x128.png" parent="1" vertex="1">
          <mxGeometry x="1608" y="299.5" width="70" height="65" as="geometry" />
        </mxCell>
        <mxCell id="pYjDzromJ4hDVgvuOjCU-48" style="edgeStyle=orthogonalEdgeStyle;rounded=0;orthogonalLoop=1;jettySize=auto;html=1;" parent="1" source="pYjDzromJ4hDVgvuOjCU-47" edge="1">
          <mxGeometry relative="1" as="geometry">
            <mxPoint x="1980" y="332" as="targetPoint" />
          </mxGeometry>
        </mxCell>
        <mxCell id="pYjDzromJ4hDVgvuOjCU-47" value="PUT: content" style="rhombus;whiteSpace=wrap;html=1;" parent="1" vertex="1">
          <mxGeometry x="1848" y="287" width="100" height="90" as="geometry" />
        </mxCell>
        <mxCell id="pYjDzromJ4hDVgvuOjCU-49" style="edgeStyle=orthogonalEdgeStyle;rounded=0;orthogonalLoop=1;jettySize=auto;html=1;" parent="1" source="pYjDzromJ4hDVgvuOjCU-53" edge="1">
          <mxGeometry relative="1" as="geometry">
            <mxPoint x="2020" y="250" as="targetPoint" />
          </mxGeometry>
        </mxCell>
        <mxCell id="pYjDzromJ4hDVgvuOjCU-50" value="NO" style="edgeLabel;html=1;align=center;verticalAlign=middle;resizable=0;points=[];" parent="pYjDzromJ4hDVgvuOjCU-49" vertex="1" connectable="0">
          <mxGeometry x="0.0543" y="-1" relative="1" as="geometry">
            <mxPoint as="offset" />
          </mxGeometry>
        </mxCell>
        <mxCell id="pYjDzromJ4hDVgvuOjCU-57" style="edgeStyle=orthogonalEdgeStyle;rounded=0;orthogonalLoop=1;jettySize=auto;html=1;" parent="1" source="pYjDzromJ4hDVgvuOjCU-53" edge="1">
          <mxGeometry relative="1" as="geometry">
            <mxPoint x="2120" y="335" as="targetPoint" />
          </mxGeometry>
        </mxCell>
        <mxCell id="pYjDzromJ4hDVgvuOjCU-58" value="YES" style="edgeLabel;html=1;align=center;verticalAlign=middle;resizable=0;points=[];" parent="pYjDzromJ4hDVgvuOjCU-57" vertex="1" connectable="0">
          <mxGeometry x="-0.1406" y="4" relative="1" as="geometry">
            <mxPoint as="offset" />
          </mxGeometry>
        </mxCell>
        <mxCell id="pYjDzromJ4hDVgvuOjCU-53" value="Valid ID?" style="ellipse;whiteSpace=wrap;html=1;" parent="1" vertex="1">
          <mxGeometry x="1980" y="295" width="80" height="80" as="geometry" />
        </mxCell>
        <mxCell id="pYjDzromJ4hDVgvuOjCU-60" style="edgeStyle=orthogonalEdgeStyle;rounded=0;orthogonalLoop=1;jettySize=auto;html=1;" parent="1" source="pYjDzromJ4hDVgvuOjCU-59" edge="1">
          <mxGeometry relative="1" as="geometry">
            <mxPoint x="1643" y="296" as="targetPoint" />
          </mxGeometry>
        </mxCell>
        <mxCell id="pYjDzromJ4hDVgvuOjCU-59" value="Error 400&lt;br&gt;bad request" style="rhombus;whiteSpace=wrap;html=1;" parent="1" vertex="1">
          <mxGeometry x="1970" y="160" width="100" height="90" as="geometry" />
        </mxCell>
        <mxCell id="pYjDzromJ4hDVgvuOjCU-62" style="edgeStyle=orthogonalEdgeStyle;rounded=0;orthogonalLoop=1;jettySize=auto;html=1;entryX=1;entryY=0.5;entryDx=0;entryDy=0;" parent="1" source="pYjDzromJ4hDVgvuOjCU-61" target="pYjDzromJ4hDVgvuOjCU-59" edge="1">
          <mxGeometry relative="1" as="geometry">
            <mxPoint x="2160" y="250" as="targetPoint" />
            <Array as="points">
              <mxPoint x="2160" y="205" />
            </Array>
          </mxGeometry>
        </mxCell>
        <mxCell id="pYjDzromJ4hDVgvuOjCU-63" value="YES" style="edgeLabel;html=1;align=center;verticalAlign=middle;resizable=0;points=[];" parent="pYjDzromJ4hDVgvuOjCU-62" vertex="1" connectable="0">
          <mxGeometry x="0.1441" y="1" relative="1" as="geometry">
            <mxPoint x="13" y="59" as="offset" />
          </mxGeometry>
        </mxCell>
        <mxCell id="pYjDzromJ4hDVgvuOjCU-67" style="edgeStyle=orthogonalEdgeStyle;rounded=0;orthogonalLoop=1;jettySize=auto;html=1;" parent="1" source="pYjDzromJ4hDVgvuOjCU-61" edge="1">
          <mxGeometry relative="1" as="geometry">
            <mxPoint x="2260" y="335" as="targetPoint" />
          </mxGeometry>
        </mxCell>
        <mxCell id="pYjDzromJ4hDVgvuOjCU-68" value="NO" style="edgeLabel;html=1;align=center;verticalAlign=middle;resizable=0;points=[];" parent="pYjDzromJ4hDVgvuOjCU-67" vertex="1" connectable="0">
          <mxGeometry x="0.1115" relative="1" as="geometry">
            <mxPoint x="-3" as="offset" />
          </mxGeometry>
        </mxCell>
        <mxCell id="pYjDzromJ4hDVgvuOjCU-61" value="Has &quot;active&quot;&lt;br&gt;field?" style="ellipse;whiteSpace=wrap;html=1;" parent="1" vertex="1">
          <mxGeometry x="2120" y="295" width="80" height="80" as="geometry" />
        </mxCell>
        <mxCell id="pYjDzromJ4hDVgvuOjCU-70" style="edgeStyle=orthogonalEdgeStyle;rounded=0;orthogonalLoop=1;jettySize=auto;html=1;entryX=0;entryY=0.5;entryDx=0;entryDy=0;" parent="1" source="pYjDzromJ4hDVgvuOjCU-69" edge="1" target="pYjDzromJ4hDVgvuOjCU-71">
          <mxGeometry relative="1" as="geometry">
            <mxPoint x="2390" y="335" as="targetPoint" />
          </mxGeometry>
        </mxCell>
        <mxCell id="ocnpiQ994oDqDsUfYSXA-9" value="YES" style="edgeLabel;html=1;align=center;verticalAlign=middle;resizable=0;points=[];" vertex="1" connectable="0" parent="pYjDzromJ4hDVgvuOjCU-70">
          <mxGeometry x="-0.08" y="2" relative="1" as="geometry">
            <mxPoint as="offset" />
          </mxGeometry>
        </mxCell>
        <mxCell id="ocnpiQ994oDqDsUfYSXA-6" style="edgeStyle=orthogonalEdgeStyle;rounded=0;orthogonalLoop=1;jettySize=auto;html=1;entryX=0.5;entryY=0;entryDx=0;entryDy=0;" edge="1" parent="1" source="pYjDzromJ4hDVgvuOjCU-69" target="ocnpiQ994oDqDsUfYSXA-5">
          <mxGeometry relative="1" as="geometry" />
        </mxCell>
        <mxCell id="ocnpiQ994oDqDsUfYSXA-7" value="NO" style="edgeLabel;html=1;align=center;verticalAlign=middle;resizable=0;points=[];" vertex="1" connectable="0" parent="ocnpiQ994oDqDsUfYSXA-6">
          <mxGeometry x="0.1842" y="-1" relative="1" as="geometry">
            <mxPoint as="offset" />
          </mxGeometry>
        </mxCell>
        <mxCell id="pYjDzromJ4hDVgvuOjCU-69" value="GET: content&lt;br&gt;by ID" style="rhombus;whiteSpace=wrap;html=1;" parent="1" vertex="1">
          <mxGeometry x="2260" y="290" width="100" height="90" as="geometry" />
        </mxCell>
        <mxCell id="pYjDzromJ4hDVgvuOjCU-73" style="edgeStyle=orthogonalEdgeStyle;rounded=0;orthogonalLoop=1;jettySize=auto;html=1;" parent="1" source="pYjDzromJ4hDVgvuOjCU-71" edge="1">
          <mxGeometry relative="1" as="geometry">
            <mxPoint x="2540" y="335" as="targetPoint" />
          </mxGeometry>
        </mxCell>
        <mxCell id="pYjDzromJ4hDVgvuOjCU-71" value="Update logic" style="shape=hexagon;perimeter=hexagonPerimeter2;whiteSpace=wrap;html=1;fixedSize=1;" parent="1" vertex="1">
          <mxGeometry x="2410" y="304" width="100" height="62" as="geometry" />
        </mxCell>
        <mxCell id="pYjDzromJ4hDVgvuOjCU-74" style="edgeStyle=orthogonalEdgeStyle;rounded=0;orthogonalLoop=1;jettySize=auto;html=1;exitX=0.5;exitY=1;exitDx=0;exitDy=0;" parent="1" source="pYjDzromJ4hDVgvuOjCU-72" edge="1">
          <mxGeometry relative="1" as="geometry">
            <mxPoint x="2455.5" y="365.5" as="sourcePoint" />
            <mxPoint x="1641" y="366" as="targetPoint" />
            <Array as="points">
              <mxPoint x="2478" y="406" />
              <mxPoint x="1641" y="406" />
            </Array>
          </mxGeometry>
        </mxCell>
        <mxCell id="pYjDzromJ4hDVgvuOjCU-72" value="content" style="rhombus;whiteSpace=wrap;html=1;" parent="1" vertex="1">
          <mxGeometry x="2540" y="290" width="100" height="90" as="geometry" />
        </mxCell>
        <mxCell id="pYjDzromJ4hDVgvuOjCU-75" value="Atualizar conteúdo" style="text;html=1;strokeColor=none;fillColor=none;align=center;verticalAlign=middle;whiteSpace=wrap;rounded=0;fontSize=16;fontFamily=Helvetica;fontColor=#FFFFFF;fontStyle=0" parent="1" vertex="1">
          <mxGeometry x="1641" y="176" width="147" height="30" as="geometry" />
        </mxCell>
        <mxCell id="ocnpiQ994oDqDsUfYSXA-8" style="edgeStyle=orthogonalEdgeStyle;rounded=0;orthogonalLoop=1;jettySize=auto;html=1;entryX=0.25;entryY=1;entryDx=0;entryDy=0;" edge="1" parent="1" source="ocnpiQ994oDqDsUfYSXA-5" target="pYjDzromJ4hDVgvuOjCU-45">
          <mxGeometry relative="1" as="geometry">
            <mxPoint x="1618" y="366" as="targetPoint" />
          </mxGeometry>
        </mxCell>
        <mxCell id="ocnpiQ994oDqDsUfYSXA-5" value="Error404&lt;br&gt;not found" style="rhombus;whiteSpace=wrap;html=1;" vertex="1" parent="1">
          <mxGeometry x="2260" y="456" width="100" height="90" as="geometry" />
        </mxCell>
        <mxCell id="ocnpiQ994oDqDsUfYSXA-19" style="edgeStyle=orthogonalEdgeStyle;rounded=0;orthogonalLoop=1;jettySize=auto;html=1;" edge="1" parent="1" source="ocnpiQ994oDqDsUfYSXA-13">
          <mxGeometry relative="1" as="geometry">
            <mxPoint x="20" y="910" as="targetPoint" />
          </mxGeometry>
        </mxCell>
        <mxCell id="ocnpiQ994oDqDsUfYSXA-13" value="Error404&lt;br&gt;not found" style="rhombus;whiteSpace=wrap;html=1;" vertex="1" parent="1">
          <mxGeometry x="400" y="1000" width="100" height="90" as="geometry" />
        </mxCell>
        <mxCell id="ocnpiQ994oDqDsUfYSXA-15" style="edgeStyle=orthogonalEdgeStyle;rounded=0;orthogonalLoop=1;jettySize=auto;html=1;" edge="1" parent="1" source="ocnpiQ994oDqDsUfYSXA-14">
          <mxGeometry relative="1" as="geometry">
            <mxPoint x="590" y="872.5" as="targetPoint" />
          </mxGeometry>
        </mxCell>
        <mxCell id="ocnpiQ994oDqDsUfYSXA-16" value="YES" style="edgeLabel;html=1;align=center;verticalAlign=middle;resizable=0;points=[];" vertex="1" connectable="0" parent="ocnpiQ994oDqDsUfYSXA-15">
          <mxGeometry x="-0.1381" relative="1" as="geometry">
            <mxPoint y="1" as="offset" />
          </mxGeometry>
        </mxCell>
        <mxCell id="ocnpiQ994oDqDsUfYSXA-17" style="edgeStyle=orthogonalEdgeStyle;rounded=0;orthogonalLoop=1;jettySize=auto;html=1;entryX=0.5;entryY=0;entryDx=0;entryDy=0;" edge="1" parent="1" source="ocnpiQ994oDqDsUfYSXA-14" target="ocnpiQ994oDqDsUfYSXA-13">
          <mxGeometry relative="1" as="geometry" />
        </mxCell>
        <mxCell id="ocnpiQ994oDqDsUfYSXA-18" value="NO" style="edgeLabel;html=1;align=center;verticalAlign=middle;resizable=0;points=[];" vertex="1" connectable="0" parent="ocnpiQ994oDqDsUfYSXA-17">
          <mxGeometry x="0.3212" y="2" relative="1" as="geometry">
            <mxPoint y="1" as="offset" />
          </mxGeometry>
        </mxCell>
        <mxCell id="ocnpiQ994oDqDsUfYSXA-14" value="GET: content&lt;br&gt;by ID" style="rhombus;whiteSpace=wrap;html=1;" vertex="1" parent="1">
          <mxGeometry x="400" y="827.5" width="100" height="90" as="geometry" />
        </mxCell>
        <mxCell id="ocnpiQ994oDqDsUfYSXA-24" style="edgeStyle=orthogonalEdgeStyle;rounded=0;orthogonalLoop=1;jettySize=auto;html=1;entryX=0;entryY=0.5;entryDx=0;entryDy=0;" edge="1" parent="1" source="ocnpiQ994oDqDsUfYSXA-23" target="pYjDzromJ4hDVgvuOjCU-20">
          <mxGeometry relative="1" as="geometry" />
        </mxCell>
        <mxCell id="ocnpiQ994oDqDsUfYSXA-23" value="GET: content" style="rhombus;whiteSpace=wrap;html=1;" vertex="1" parent="1">
          <mxGeometry x="254.25" y="510" width="100" height="90" as="geometry" />
        </mxCell>
        <mxCell id="ocnpiQ994oDqDsUfYSXA-26" style="edgeStyle=orthogonalEdgeStyle;rounded=0;orthogonalLoop=1;jettySize=auto;html=1;entryX=0;entryY=0.5;entryDx=0;entryDy=0;" edge="1" parent="1" source="ocnpiQ994oDqDsUfYSXA-25" target="pYjDzromJ4hDVgvuOjCU-4">
          <mxGeometry relative="1" as="geometry">
            <mxPoint x="410" y="242" as="targetPoint" />
          </mxGeometry>
        </mxCell>
        <mxCell id="ocnpiQ994oDqDsUfYSXA-25" value="GET: content" style="rhombus;whiteSpace=wrap;html=1;" vertex="1" parent="1">
          <mxGeometry x="260" y="197" width="100" height="90" as="geometry" />
        </mxCell>
        <mxCell id="ocnpiQ994oDqDsUfYSXA-29" style="edgeStyle=orthogonalEdgeStyle;rounded=0;orthogonalLoop=1;jettySize=auto;html=1;" edge="1" parent="1" source="ocnpiQ994oDqDsUfYSXA-28">
          <mxGeometry relative="1" as="geometry">
            <mxPoint x="1718" y="793" as="targetPoint" />
          </mxGeometry>
        </mxCell>
        <mxCell id="ocnpiQ994oDqDsUfYSXA-28" value="" style="image;html=1;image=img/lib/clip_art/computers/Network_128x128.png" vertex="1" parent="1">
          <mxGeometry x="1608" y="760.5" width="70" height="65" as="geometry" />
        </mxCell>
        <mxCell id="ocnpiQ994oDqDsUfYSXA-31" style="edgeStyle=orthogonalEdgeStyle;rounded=0;orthogonalLoop=1;jettySize=auto;html=1;" edge="1" parent="1" source="ocnpiQ994oDqDsUfYSXA-30">
          <mxGeometry relative="1" as="geometry">
            <mxPoint x="1858" y="793" as="targetPoint" />
          </mxGeometry>
        </mxCell>
        <mxCell id="ocnpiQ994oDqDsUfYSXA-30" value="PATCH: content" style="rhombus;whiteSpace=wrap;html=1;" vertex="1" parent="1">
          <mxGeometry x="1715" y="748" width="100" height="90" as="geometry" />
        </mxCell>
        <mxCell id="ocnpiQ994oDqDsUfYSXA-32" style="edgeStyle=orthogonalEdgeStyle;rounded=0;orthogonalLoop=1;jettySize=auto;html=1;" edge="1" parent="1" source="ocnpiQ994oDqDsUfYSXA-36">
          <mxGeometry relative="1" as="geometry">
            <mxPoint x="1898" y="708.5" as="targetPoint" />
          </mxGeometry>
        </mxCell>
        <mxCell id="ocnpiQ994oDqDsUfYSXA-33" value="NO" style="edgeLabel;html=1;align=center;verticalAlign=middle;resizable=0;points=[];" vertex="1" connectable="0" parent="ocnpiQ994oDqDsUfYSXA-32">
          <mxGeometry x="0.0543" y="-1" relative="1" as="geometry">
            <mxPoint as="offset" />
          </mxGeometry>
        </mxCell>
        <mxCell id="ocnpiQ994oDqDsUfYSXA-34" style="edgeStyle=orthogonalEdgeStyle;rounded=0;orthogonalLoop=1;jettySize=auto;html=1;" edge="1" parent="1" source="ocnpiQ994oDqDsUfYSXA-36">
          <mxGeometry relative="1" as="geometry">
            <mxPoint x="1998" y="793.5" as="targetPoint" />
          </mxGeometry>
        </mxCell>
        <mxCell id="ocnpiQ994oDqDsUfYSXA-35" value="YES" style="edgeLabel;html=1;align=center;verticalAlign=middle;resizable=0;points=[];" vertex="1" connectable="0" parent="ocnpiQ994oDqDsUfYSXA-34">
          <mxGeometry x="-0.1406" y="4" relative="1" as="geometry">
            <mxPoint as="offset" />
          </mxGeometry>
        </mxCell>
        <mxCell id="ocnpiQ994oDqDsUfYSXA-36" value="Valid ID?" style="ellipse;whiteSpace=wrap;html=1;" vertex="1" parent="1">
          <mxGeometry x="1858" y="753.5" width="80" height="80" as="geometry" />
        </mxCell>
        <mxCell id="ocnpiQ994oDqDsUfYSXA-38" style="edgeStyle=orthogonalEdgeStyle;rounded=0;orthogonalLoop=1;jettySize=auto;html=1;entryX=0.5;entryY=0;entryDx=0;entryDy=0;" edge="1" parent="1" source="ocnpiQ994oDqDsUfYSXA-37" target="ocnpiQ994oDqDsUfYSXA-28">
          <mxGeometry relative="1" as="geometry" />
        </mxCell>
        <mxCell id="ocnpiQ994oDqDsUfYSXA-37" value="Error 400&lt;br&gt;bad request" style="rhombus;whiteSpace=wrap;html=1;" vertex="1" parent="1">
          <mxGeometry x="1848" y="618.5" width="100" height="90" as="geometry" />
        </mxCell>
        <mxCell id="ocnpiQ994oDqDsUfYSXA-39" value="Atualizar status" style="text;html=1;strokeColor=none;fillColor=none;align=center;verticalAlign=middle;whiteSpace=wrap;rounded=0;fontSize=16;fontFamily=Helvetica;fontColor=#FFFFFF;fontStyle=0" vertex="1" parent="1">
          <mxGeometry x="1641" y="633.5" width="117" height="30" as="geometry" />
        </mxCell>
        <mxCell id="ocnpiQ994oDqDsUfYSXA-40" value="Param active&lt;br style=&quot;font-size: 11px;&quot;&gt;is already&lt;br style=&quot;font-size: 11px;&quot;&gt;active?" style="ellipse;whiteSpace=wrap;html=1;fontSize=11;" vertex="1" parent="1">
          <mxGeometry x="1998" y="753" width="80" height="80" as="geometry" />
        </mxCell>
        <mxCell id="ocnpiQ994oDqDsUfYSXA-41" style="edgeStyle=orthogonalEdgeStyle;rounded=0;orthogonalLoop=1;jettySize=auto;html=1;entryX=1;entryY=0.5;entryDx=0;entryDy=0;" edge="1" parent="1">
          <mxGeometry relative="1" as="geometry">
            <mxPoint x="1948" y="663.5" as="targetPoint" />
            <Array as="points">
              <mxPoint x="2038" y="663.5" />
            </Array>
            <mxPoint x="2038" y="753.5" as="sourcePoint" />
          </mxGeometry>
        </mxCell>
        <mxCell id="ocnpiQ994oDqDsUfYSXA-42" value="YES" style="edgeLabel;html=1;align=center;verticalAlign=middle;resizable=0;points=[];" vertex="1" connectable="0" parent="ocnpiQ994oDqDsUfYSXA-41">
          <mxGeometry x="0.1441" y="1" relative="1" as="geometry">
            <mxPoint x="13" y="59" as="offset" />
          </mxGeometry>
        </mxCell>
        <mxCell id="ocnpiQ994oDqDsUfYSXA-44" style="edgeStyle=orthogonalEdgeStyle;rounded=0;orthogonalLoop=1;jettySize=auto;html=1;" edge="1" parent="1">
          <mxGeometry relative="1" as="geometry">
            <mxPoint x="2138" y="794" as="targetPoint" />
            <mxPoint x="2078" y="794" as="sourcePoint" />
          </mxGeometry>
        </mxCell>
        <mxCell id="ocnpiQ994oDqDsUfYSXA-45" value="YES" style="edgeLabel;html=1;align=center;verticalAlign=middle;resizable=0;points=[];" vertex="1" connectable="0" parent="ocnpiQ994oDqDsUfYSXA-44">
          <mxGeometry x="-0.1406" y="4" relative="1" as="geometry">
            <mxPoint as="offset" />
          </mxGeometry>
        </mxCell>
        <mxCell id="ocnpiQ994oDqDsUfYSXA-47" value="Param deactive&lt;br style=&quot;font-size: 11px;&quot;&gt;is already&lt;br style=&quot;font-size: 11px;&quot;&gt;deactivated?" style="ellipse;whiteSpace=wrap;html=1;fontSize=11;" vertex="1" parent="1">
          <mxGeometry x="1998" y="863.5" width="80" height="80" as="geometry" />
        </mxCell>
        <mxCell id="ocnpiQ994oDqDsUfYSXA-48" value="" style="endArrow=none;html=1;rounded=0;entryX=0.5;entryY=1;entryDx=0;entryDy=0;exitX=0.5;exitY=0;exitDx=0;exitDy=0;" edge="1" parent="1" source="ocnpiQ994oDqDsUfYSXA-47" target="ocnpiQ994oDqDsUfYSXA-40">
          <mxGeometry width="50" height="50" relative="1" as="geometry">
            <mxPoint x="2038" y="858.5" as="sourcePoint" />
            <mxPoint x="1998" y="548.5" as="targetPoint" />
          </mxGeometry>
        </mxCell>
        <mxCell id="ocnpiQ994oDqDsUfYSXA-49" style="edgeStyle=orthogonalEdgeStyle;rounded=0;orthogonalLoop=1;jettySize=auto;html=1;entryX=0;entryY=0.5;entryDx=0;entryDy=0;" edge="1" parent="1" source="ocnpiQ994oDqDsUfYSXA-51" target="ocnpiQ994oDqDsUfYSXA-53">
          <mxGeometry relative="1" as="geometry">
            <mxPoint x="2268" y="793" as="targetPoint" />
          </mxGeometry>
        </mxCell>
        <mxCell id="ocnpiQ994oDqDsUfYSXA-50" value="YES" style="edgeLabel;html=1;align=center;verticalAlign=middle;resizable=0;points=[];" vertex="1" connectable="0" parent="ocnpiQ994oDqDsUfYSXA-49">
          <mxGeometry x="-0.08" y="2" relative="1" as="geometry">
            <mxPoint as="offset" />
          </mxGeometry>
        </mxCell>
        <mxCell id="ocnpiQ994oDqDsUfYSXA-51" value="GET: content&lt;br&gt;by ID" style="rhombus;whiteSpace=wrap;html=1;" vertex="1" parent="1">
          <mxGeometry x="2138" y="748" width="100" height="90" as="geometry" />
        </mxCell>
        <mxCell id="ocnpiQ994oDqDsUfYSXA-52" style="edgeStyle=orthogonalEdgeStyle;rounded=0;orthogonalLoop=1;jettySize=auto;html=1;" edge="1" parent="1" source="ocnpiQ994oDqDsUfYSXA-53">
          <mxGeometry relative="1" as="geometry">
            <mxPoint x="2418" y="793" as="targetPoint" />
          </mxGeometry>
        </mxCell>
        <mxCell id="ocnpiQ994oDqDsUfYSXA-53" value="Update logic" style="shape=hexagon;perimeter=hexagonPerimeter2;whiteSpace=wrap;html=1;fixedSize=1;" vertex="1" parent="1">
          <mxGeometry x="2288" y="762" width="100" height="62" as="geometry" />
        </mxCell>
        <mxCell id="ocnpiQ994oDqDsUfYSXA-59" style="edgeStyle=orthogonalEdgeStyle;rounded=0;orthogonalLoop=1;jettySize=auto;html=1;entryX=0.25;entryY=1;entryDx=0;entryDy=0;" edge="1" parent="1" source="ocnpiQ994oDqDsUfYSXA-54" target="ocnpiQ994oDqDsUfYSXA-28">
          <mxGeometry relative="1" as="geometry">
            <Array as="points">
              <mxPoint x="2468" y="1038.5" />
              <mxPoint x="1626" y="1038.5" />
            </Array>
          </mxGeometry>
        </mxCell>
        <mxCell id="ocnpiQ994oDqDsUfYSXA-54" value="content" style="rhombus;whiteSpace=wrap;html=1;" vertex="1" parent="1">
          <mxGeometry x="2418" y="748" width="100" height="90" as="geometry" />
        </mxCell>
        <mxCell id="ocnpiQ994oDqDsUfYSXA-55" style="edgeStyle=orthogonalEdgeStyle;rounded=0;orthogonalLoop=1;jettySize=auto;html=1;entryX=0.5;entryY=0;entryDx=0;entryDy=0;" edge="1" parent="1" target="ocnpiQ994oDqDsUfYSXA-57">
          <mxGeometry relative="1" as="geometry">
            <mxPoint x="2188" y="838.5" as="sourcePoint" />
          </mxGeometry>
        </mxCell>
        <mxCell id="ocnpiQ994oDqDsUfYSXA-56" value="NO" style="edgeLabel;html=1;align=center;verticalAlign=middle;resizable=0;points=[];" vertex="1" connectable="0" parent="ocnpiQ994oDqDsUfYSXA-55">
          <mxGeometry x="0.1842" y="-1" relative="1" as="geometry">
            <mxPoint as="offset" />
          </mxGeometry>
        </mxCell>
        <mxCell id="ocnpiQ994oDqDsUfYSXA-57" value="Error404&lt;br&gt;not found" style="rhombus;whiteSpace=wrap;html=1;" vertex="1" parent="1">
          <mxGeometry x="2138" y="914.5" width="100" height="90" as="geometry" />
        </mxCell>
        <mxCell id="ocnpiQ994oDqDsUfYSXA-58" style="edgeStyle=orthogonalEdgeStyle;rounded=0;orthogonalLoop=1;jettySize=auto;html=1;" edge="1" parent="1">
          <mxGeometry relative="1" as="geometry">
            <mxPoint x="2138" y="960" as="sourcePoint" />
            <mxPoint x="1648" y="828.5" as="targetPoint" />
          </mxGeometry>
        </mxCell>
        <mxCell id="ocnpiQ994oDqDsUfYSXA-61" style="edgeStyle=orthogonalEdgeStyle;rounded=0;orthogonalLoop=1;jettySize=auto;html=1;" edge="1" parent="1" source="ocnpiQ994oDqDsUfYSXA-60">
          <mxGeometry relative="1" as="geometry">
            <mxPoint x="744" y="303.22" as="targetPoint" />
          </mxGeometry>
        </mxCell>
        <mxCell id="ocnpiQ994oDqDsUfYSXA-60" value="" style="image;html=1;image=img/lib/clip_art/computers/Network_128x128.png" vertex="1" parent="1">
          <mxGeometry x="626" y="270.72" width="70" height="65" as="geometry" />
        </mxCell>
        <mxCell id="ocnpiQ994oDqDsUfYSXA-63" style="edgeStyle=orthogonalEdgeStyle;rounded=0;orthogonalLoop=1;jettySize=auto;html=1;" edge="1" parent="1" source="ocnpiQ994oDqDsUfYSXA-62">
          <mxGeometry relative="1" as="geometry">
            <mxPoint x="894" y="303.22" as="targetPoint" />
          </mxGeometry>
        </mxCell>
        <mxCell id="ocnpiQ994oDqDsUfYSXA-62" value="request" style="rhombus;whiteSpace=wrap;html=1;" vertex="1" parent="1">
          <mxGeometry x="744" y="258.22" width="100" height="90" as="geometry" />
        </mxCell>
        <mxCell id="ocnpiQ994oDqDsUfYSXA-84" style="edgeStyle=orthogonalEdgeStyle;rounded=0;orthogonalLoop=1;jettySize=auto;html=1;entryX=0;entryY=0.5;entryDx=0;entryDy=0;" edge="1" parent="1" source="ocnpiQ994oDqDsUfYSXA-64" target="ocnpiQ994oDqDsUfYSXA-82">
          <mxGeometry relative="1" as="geometry" />
        </mxCell>
        <mxCell id="ocnpiQ994oDqDsUfYSXA-64" value="PATCH: content" style="rhombus;whiteSpace=wrap;html=1;" vertex="1" parent="1">
          <mxGeometry x="894" y="258.22" width="100" height="90" as="geometry" />
        </mxCell>
        <mxCell id="ocnpiQ994oDqDsUfYSXA-65" style="edgeStyle=orthogonalEdgeStyle;rounded=0;orthogonalLoop=1;jettySize=auto;html=1;entryX=0.5;entryY=0;entryDx=0;entryDy=0;" edge="1" parent="1" source="ocnpiQ994oDqDsUfYSXA-67" target="ocnpiQ994oDqDsUfYSXA-68">
          <mxGeometry relative="1" as="geometry" />
        </mxCell>
        <mxCell id="ocnpiQ994oDqDsUfYSXA-66" value="NO" style="edgeLabel;html=1;align=center;verticalAlign=middle;resizable=0;points=[];" vertex="1" connectable="0" parent="ocnpiQ994oDqDsUfYSXA-65">
          <mxGeometry x="0.1842" y="-1" relative="1" as="geometry">
            <mxPoint as="offset" />
          </mxGeometry>
        </mxCell>
        <mxCell id="ocnpiQ994oDqDsUfYSXA-67" value="GET: content&lt;br&gt;by ID" style="rhombus;whiteSpace=wrap;html=1;" vertex="1" parent="1">
          <mxGeometry x="1166" y="258.22" width="100" height="90" as="geometry" />
        </mxCell>
        <mxCell id="ocnpiQ994oDqDsUfYSXA-77" style="edgeStyle=orthogonalEdgeStyle;rounded=0;orthogonalLoop=1;jettySize=auto;html=1;" edge="1" parent="1" source="ocnpiQ994oDqDsUfYSXA-68">
          <mxGeometry relative="1" as="geometry">
            <mxPoint x="680" y="341.22" as="targetPoint" />
          </mxGeometry>
        </mxCell>
        <mxCell id="ocnpiQ994oDqDsUfYSXA-68" value="Error404&lt;br&gt;not found" style="rhombus;whiteSpace=wrap;html=1;" vertex="1" parent="1">
          <mxGeometry x="1166" y="424.22" width="100" height="90" as="geometry" />
        </mxCell>
        <mxCell id="ocnpiQ994oDqDsUfYSXA-70" style="edgeStyle=orthogonalEdgeStyle;rounded=0;orthogonalLoop=1;jettySize=auto;html=1;entryX=0;entryY=0.5;entryDx=0;entryDy=0;" edge="1" parent="1" target="ocnpiQ994oDqDsUfYSXA-73">
          <mxGeometry relative="1" as="geometry">
            <mxPoint x="1296" y="303.22" as="targetPoint" />
            <mxPoint x="1266" y="303.22" as="sourcePoint" />
          </mxGeometry>
        </mxCell>
        <mxCell id="ocnpiQ994oDqDsUfYSXA-71" value="YES" style="edgeLabel;html=1;align=center;verticalAlign=middle;resizable=0;points=[];" vertex="1" connectable="0" parent="ocnpiQ994oDqDsUfYSXA-70">
          <mxGeometry x="-0.08" y="2" relative="1" as="geometry">
            <mxPoint as="offset" />
          </mxGeometry>
        </mxCell>
        <mxCell id="ocnpiQ994oDqDsUfYSXA-72" style="edgeStyle=orthogonalEdgeStyle;rounded=0;orthogonalLoop=1;jettySize=auto;html=1;" edge="1" parent="1" source="ocnpiQ994oDqDsUfYSXA-73">
          <mxGeometry relative="1" as="geometry">
            <mxPoint x="1446" y="303.22" as="targetPoint" />
          </mxGeometry>
        </mxCell>
        <mxCell id="ocnpiQ994oDqDsUfYSXA-87" style="edgeStyle=orthogonalEdgeStyle;rounded=0;orthogonalLoop=1;jettySize=auto;html=1;entryX=1;entryY=0.5;entryDx=0;entryDy=0;" edge="1" parent="1" source="ocnpiQ994oDqDsUfYSXA-73" target="ocnpiQ994oDqDsUfYSXA-83">
          <mxGeometry relative="1" as="geometry">
            <Array as="points">
              <mxPoint x="1366" y="174" />
            </Array>
          </mxGeometry>
        </mxCell>
        <mxCell id="ocnpiQ994oDqDsUfYSXA-88" value="ADD OR REMOVE DO NOT EXIST IN PAYLOAD" style="edgeLabel;html=1;align=center;verticalAlign=middle;resizable=0;points=[];" vertex="1" connectable="0" parent="ocnpiQ994oDqDsUfYSXA-87">
          <mxGeometry x="-0.7054" y="3" relative="1" as="geometry">
            <mxPoint as="offset" />
          </mxGeometry>
        </mxCell>
        <mxCell id="ocnpiQ994oDqDsUfYSXA-73" value="Add or Remove" style="shape=hexagon;perimeter=hexagonPerimeter2;whiteSpace=wrap;html=1;fixedSize=1;" vertex="1" parent="1">
          <mxGeometry x="1316" y="272.22" width="100" height="62" as="geometry" />
        </mxCell>
        <mxCell id="ocnpiQ994oDqDsUfYSXA-76" style="edgeStyle=orthogonalEdgeStyle;rounded=0;orthogonalLoop=1;jettySize=auto;html=1;entryX=0.5;entryY=1;entryDx=0;entryDy=0;" edge="1" parent="1" source="ocnpiQ994oDqDsUfYSXA-74" target="ocnpiQ994oDqDsUfYSXA-60">
          <mxGeometry relative="1" as="geometry">
            <Array as="points">
              <mxPoint x="1496" y="541.22" />
              <mxPoint x="661" y="541.22" />
            </Array>
          </mxGeometry>
        </mxCell>
        <mxCell id="ocnpiQ994oDqDsUfYSXA-74" value="content" style="rhombus;whiteSpace=wrap;html=1;" vertex="1" parent="1">
          <mxGeometry x="1446" y="258.22" width="100" height="90" as="geometry" />
        </mxCell>
        <mxCell id="ocnpiQ994oDqDsUfYSXA-78" style="edgeStyle=orthogonalEdgeStyle;rounded=0;orthogonalLoop=1;jettySize=auto;html=1;" edge="1" parent="1" source="ocnpiQ994oDqDsUfYSXA-82">
          <mxGeometry relative="1" as="geometry">
            <mxPoint x="1066" y="218.72" as="targetPoint" />
          </mxGeometry>
        </mxCell>
        <mxCell id="ocnpiQ994oDqDsUfYSXA-79" value="NO" style="edgeLabel;html=1;align=center;verticalAlign=middle;resizable=0;points=[];" vertex="1" connectable="0" parent="ocnpiQ994oDqDsUfYSXA-78">
          <mxGeometry x="0.0543" y="-1" relative="1" as="geometry">
            <mxPoint as="offset" />
          </mxGeometry>
        </mxCell>
        <mxCell id="ocnpiQ994oDqDsUfYSXA-80" style="edgeStyle=orthogonalEdgeStyle;rounded=0;orthogonalLoop=1;jettySize=auto;html=1;" edge="1" parent="1" source="ocnpiQ994oDqDsUfYSXA-82">
          <mxGeometry relative="1" as="geometry">
            <mxPoint x="1166" y="303.72" as="targetPoint" />
          </mxGeometry>
        </mxCell>
        <mxCell id="ocnpiQ994oDqDsUfYSXA-81" value="YES" style="edgeLabel;html=1;align=center;verticalAlign=middle;resizable=0;points=[];" vertex="1" connectable="0" parent="ocnpiQ994oDqDsUfYSXA-80">
          <mxGeometry x="-0.1406" y="4" relative="1" as="geometry">
            <mxPoint as="offset" />
          </mxGeometry>
        </mxCell>
        <mxCell id="ocnpiQ994oDqDsUfYSXA-82" value="Valid ID?" style="ellipse;whiteSpace=wrap;html=1;" vertex="1" parent="1">
          <mxGeometry x="1026" y="263.72" width="80" height="80" as="geometry" />
        </mxCell>
        <mxCell id="ocnpiQ994oDqDsUfYSXA-85" style="edgeStyle=orthogonalEdgeStyle;rounded=0;orthogonalLoop=1;jettySize=auto;html=1;entryX=0.5;entryY=0;entryDx=0;entryDy=0;" edge="1" parent="1" source="ocnpiQ994oDqDsUfYSXA-83" target="ocnpiQ994oDqDsUfYSXA-60">
          <mxGeometry relative="1" as="geometry" />
        </mxCell>
        <mxCell id="ocnpiQ994oDqDsUfYSXA-83" value="Error 400&lt;br&gt;bad request" style="rhombus;whiteSpace=wrap;html=1;" vertex="1" parent="1">
          <mxGeometry x="1016" y="128.72" width="100" height="90" as="geometry" />
        </mxCell>
        <mxCell id="ocnpiQ994oDqDsUfYSXA-86" value="Adicionar ou Remover conteúdo" style="text;html=1;strokeColor=none;fillColor=none;align=center;verticalAlign=middle;whiteSpace=wrap;rounded=0;fontSize=16;fontFamily=Helvetica;fontColor=#FFFFFF;fontStyle=0" vertex="1" parent="1">
          <mxGeometry x="660" y="146" width="240" height="30" as="geometry" />
        </mxCell>
        <mxCell id="ocnpiQ994oDqDsUfYSXA-94" style="edgeStyle=orthogonalEdgeStyle;rounded=0;orthogonalLoop=1;jettySize=auto;html=1;entryX=0;entryY=0.5;entryDx=0;entryDy=0;" edge="1" parent="1" source="ocnpiQ994oDqDsUfYSXA-91" target="pYjDzromJ4hDVgvuOjCU-47">
          <mxGeometry relative="1" as="geometry" />
        </mxCell>
        <mxCell id="ocnpiQ994oDqDsUfYSXA-91" value="request" style="rhombus;whiteSpace=wrap;html=1;" vertex="1" parent="1">
          <mxGeometry x="1708" y="287" width="100" height="90" as="geometry" />
        </mxCell>
        <mxCell id="ocnpiQ994oDqDsUfYSXA-95" value="" style="rounded=0;whiteSpace=wrap;html=1;fillColor=#008a00;fontColor=#ffffff;strokeColor=#005700;" vertex="1" parent="1">
          <mxGeometry x="2873" y="-236" width="2940" height="1481" as="geometry" />
        </mxCell>
        <mxCell id="ocnpiQ994oDqDsUfYSXA-96" value="" style="rounded=0;whiteSpace=wrap;html=1;" vertex="1" parent="1">
          <mxGeometry x="2903" y="-210" width="2880" height="1429" as="geometry" />
        </mxCell>
        <mxCell id="ocnpiQ994oDqDsUfYSXA-99" value="Fluxos de Usuário" style="text;html=1;strokeColor=none;fillColor=none;align=center;verticalAlign=middle;whiteSpace=wrap;rounded=0;fontSize=69;fontFamily=Helvetica;fontColor=#FFFFFF;fontStyle=1" vertex="1" parent="1">
          <mxGeometry x="3937" y="-171" width="731" height="130" as="geometry" />
        </mxCell>
      </root>
    </mxGraphModel>
  </diagram>
</mxfile>
